<?xml version="1.0" encoding="UTF-8"?> <svg xmlns="http://www.w3.org/2000/svg" xmlns:xlink="http://www.w3.org/1999/xlink" width="180px" height="34px" viewBox="0 0 180 34" version="1.1"><title>7A8DD403-EC86-4476-8625-AF5D1D0E00A4</title><g id="Page-1" stroke="none" stroke-width="1" fill="none" fill-rule="evenodd"><g id="Homepage" transform="translate(-374.000000, -4040.000000)" fill="#FFFFFF"><g id="LOGO-White" transform="translate(374.000000, 4040.000000)"><g id="LOGO"><path d="M47.8205367,10.8159763 C49.9249265,10.8159763 51.5398658,11.3316814 52.6654121,12.3639559 C53.7899808,13.3953661 54.3532141,14.8306271 54.3532141,16.6689322 C54.3532141,18.5063153 53.8044153,19.9614 52.7067604,21.0324576 C51.6100256,22.1035153 49.9356805,22.6399661 47.6855655,22.6399661 L43.6513227,22.6399661 L43.6513227,10.8159763 L47.8205367,10.8159763 Z M47.9554505,20.3049153 C49.1592652,20.3049153 50.0850288,20.0011051 50.7319361,19.3916407 C51.3788435,18.7830983 51.7027284,17.8977729 51.7027284,16.7365288 C51.7027284,15.5744203 51.3788435,14.6809695 50.7319361,14.0553119 C50.0850288,13.4295966 49.0918083,13.1167966 47.7530224,13.1167966 L46.2847284,13.1167966 L46.2847284,20.3049153 L47.9554505,20.3049153 Z M67.4833227,10.8159763 L67.4833227,13.167278 L61.6094569,13.167278 L61.6094569,15.6032915 L66.8932907,15.6032915 L66.8932907,17.8526508 L61.6094569,17.8526508 L61.6094569,20.3049153 L67.6696486,20.3049153 L67.6696486,22.6399661 L58.9755911,22.6399661 L58.9755911,10.8159763 L67.4833227,10.8159763 Z M80.8671565,10.8159763 L80.8671565,13.167278 L74.9932907,13.167278 L74.9932907,15.6032915 L80.2771246,15.6032915 L80.2771246,17.8526508 L74.9932907,17.8526508 L74.9932907,20.3049153 L81.0534824,20.3049153 L81.0534824,22.6399661 L72.36,22.6399661 L72.36,10.8159763 L80.8671565,10.8159763 Z M89.913738,10.8159763 C91.7246645,10.8159763 93.0444728,11.1684814 93.8714377,11.8735492 C94.6984026,12.5776373 95.1124601,13.6603932 95.1124601,15.1209525 C95.1124601,16.5814542 94.687476,17.6498034 93.8380831,18.326 C92.988115,19.003061 91.6913099,19.3411593 89.9470927,19.3411593 L88.3771246,19.3411593 L88.3771246,22.6399661 L85.7438339,22.6399661 L85.7438339,10.8159763 L89.913738,10.8159763 Z M90.1495208,17.0575119 C91.0276677,17.0575119 91.6240256,16.8799051 91.9391693,16.5246915 C92.253738,16.169478 92.4113099,15.6510644 92.4113099,14.9685864 C92.4113099,14.2861085 92.2060064,13.801061 91.7948243,13.5134441 C91.3847923,13.2267492 90.7458786,13.0825085 89.8798083,13.0825085 L88.3771246,13.0825085 L88.3771246,17.0575119 L90.1495208,17.0575119 Z M101.693674,12.6768136 L101.693674,15.9242169 L106.926326,15.9242169 L106.926326,17.767939 L101.693674,17.767939 L101.693674,22.6399661 L99.7015974,22.6399661 L99.7015974,10.8159763 L107.56754,10.8159763 L107.550288,12.6768136 L101.693674,12.6768136 Z M113.18722,19.9497017 L112.004856,22.6399661 L109.878211,22.6399661 L115.077508,10.8159763 L117.204153,10.8159763 L122.40345,22.6399661 L120.276805,22.6399661 L119.094441,19.9497017 L113.18722,19.9497017 Z M118.284728,18.1060373 L116.140831,13.2348746 L113.996933,18.1060373 L118.284728,18.1060373 Z M131.769201,20.8296102 C132.455847,20.8296102 133.047029,20.7142407 133.541597,20.482522 C134.036741,20.2517254 134.554888,19.8821051 135.094888,19.3745254 L136.377891,20.6944169 C135.128818,22.0809831 133.612907,22.7752169 131.82901,22.7752169 C130.044537,22.7752169 128.565431,22.1999831 127.389968,21.0496305 C126.21278,19.8992203 125.625623,18.444078 125.625623,16.6851254 C125.625623,14.9262305 126.224856,13.4602542 127.422748,12.2873119 C128.621214,11.1144271 130.135399,10.5284169 131.963578,10.5284169 C133.792907,10.5284169 135.320319,11.205478 136.546965,12.5578136 L135.281214,13.9453017 C134.717636,13.4043559 134.186262,13.0266102 133.685942,12.8120644 C133.184473,12.597461 132.597316,12.4902169 131.921597,12.4902169 C130.728307,12.4902169 129.727093,12.8769525 128.91738,13.6496169 C128.106518,14.4213593 127.701661,15.4085695 127.701661,16.6094034 C127.701661,17.8102949 128.104217,18.8137559 128.908179,19.6206508 C129.713866,20.4266237 130.667348,20.8296102 131.769201,20.8296102 L131.769201,20.8296102 Z M145.609649,12.6425254 L145.609649,22.6399661 L143.617572,22.6399661 L143.617572,12.6425254 L140.038275,12.6425254 L140.038275,10.8159763 L149.187796,10.8159763 L149.187796,12.6425254 L145.609649,12.6425254 Z" id="Fill-1"></path><path d="M162.5377,16.6685864 C162.5377,15.6083051 162.200703,14.7067864 161.524984,13.9620712 C160.84984,13.218278 160.019425,12.8459492 159.035463,12.8459492 C158.050351,12.8459492 157.220511,13.218278 156.545942,13.9620712 C155.870224,14.7067864 155.532652,15.6055966 155.532652,16.660461 C155.532652,17.7143458 155.870224,18.6105051 156.545942,19.3498034 C157.220511,20.0881797 158.050351,20.4578 159.035463,20.4578 C160.019425,20.4578 160.84984,20.0881797 161.524984,19.3498034 C162.200703,18.6105051 162.5377,17.7170542 162.5377,16.6685864 M163.431949,21.015861 C162.240383,22.1771051 160.771054,22.7576983 159.027412,22.7576983 C157.28262,22.7576983 155.814441,22.1743966 154.621725,21.0068712 C153.428435,19.8402678 152.832077,18.3878339 152.832077,16.6514136 C152.832077,14.9150508 153.428435,13.463539 154.621725,12.2960136 C155.814441,11.1284881 157.28262,10.5451864 159.027412,10.5451864 C160.771054,10.5451864 162.240383,11.1284881 163.431949,12.2960136 C164.62524,13.463539 165.221597,14.9150508 165.221597,16.6514136 C165.221597,18.3878339 164.62524,19.8429763 163.431949,21.015861" id="Fill-2"></path><path d="M179.399042,14.6555559 C179.399042,16.606522 178.549649,17.8353627 176.850288,18.3429424 L179.939042,22.6397932 L177.406965,22.6397932 L174.588498,18.6647898 L171.971885,18.6647898 L171.971885,22.6397932 L169.980383,22.6397932 L169.980383,10.8158034 L174.368818,10.8158034 C176.169393,10.8158034 177.458722,11.1205356 178.23393,11.729078 C179.010288,12.3385424 179.399042,13.3140542 179.399042,14.6555559 L179.399042,14.6555559 Z M174.453355,16.8544915 C175.578786,16.8544915 176.343642,16.6795356 176.748498,16.329739 C177.154505,15.9808644 177.356933,15.4191729 177.356933,14.6474305 C177.356933,13.8748237 177.148179,13.3447119 176.732396,13.0570949 C176.316038,12.769478 175.57246,12.6261593 174.503962,12.6261593 L171.971885,12.6261593 L171.971885,16.8544915 L174.453355,16.8544915 Z" id="Fill-3"></path><path d="M16.9597955,33.9907797 C7.59277955,33.9907797 0,26.3814068 0,16.9958508 C0,7.60937288 7.59277955,0 16.9597955,0 C26.326869,0 33.9195911,7.60937288 33.9195911,16.9958508 C33.9195911,26.3814068 26.326869,33.9907797 16.9597955,33.9907797 M16.9597955,30.5921627 C24.4536038,30.5921627 30.528,24.504261 30.528,16.9958508 C30.528,9.48651864 24.4536038,3.39953898 16.9597955,3.39953898 C9.46598722,3.39953898 3.39159105,9.48651864 3.39159105,16.9958508 C3.39159105,24.504261 9.46598722,30.5921627 16.9597955,30.5921627" id="Fill-4"></path><path d="M14.7710415,18.1047695 L13.7350351,18.1047695 L12.1052013,15.1465966 L15.8471885,15.1465966 L16.3848307,13.6679424 L11.3874441,13.6679424 L9.75766773,10.7098271 L17.5831246,10.7098271 C19.832607,10.729478 21.5631949,11.2780305 22.7748307,12.3554847 C24.0096997,13.4526475 24.6266454,14.9777492 24.6266454,16.9325763 C24.6266454,18.886539 24.0248243,20.4339424 22.8211821,21.5731153 C21.6175399,22.7122305 19.78177,23.2813559 17.3129521,23.2813559 L12.888,23.2813559 L14.7710415,18.1047695 Z M17.1266262,20.3231831 L17.3129521,20.3231831 C19.0818978,20.3231831 20.1909968,19.9792068 20.7714249,19.4297322 C21.3554185,18.8776068 21.6532524,18.1119153 21.6532524,16.9325763 C21.6532524,15.7827424 21.3634696,15.0670712 20.793738,14.5613932 C20.4710032,14.2737186 20.0331949,14.0467831 19.465246,13.8930915 L17.1266262,20.3231831 Z" id="Fill-5"></path></g></g></g></g></svg> 